<?xml version="1.0" encoding="UTF-8"?>
<svg width="42px" height="42px" viewBox="0 0 42 42" version="1.1" xmlns="http://www.w3.org/2000/svg" xmlns:xlink="http://www.w3.org/1999/xlink">
    <title>upload-data</title>
    <g id="Page-1" stroke="none" stroke-width="1" fill="none" fill-rule="evenodd">
        <g id="Create:-Step-1" transform="translate(-166.000000, -227.000000)" fill="#FFFFFF" fill-rule="nonzero">
            <g id="upload-data" transform="translate(166.000000, 227.000000)">
                <path d="M16,2 L26,2 C26.5522847,2 27,1.55228475 27,1 C27,0.44771525 26.5522847,0 26,0 L16,0 C15.4477153,0 15,0.44771525 15,1 C15,1.55228475 15.4477153,2 16,2 Z" id="Path"></path>
                <path d="M26,40 L16,40 C15.4477153,40 15,40.4477153 15,41 C15,41.5522847 15.4477153,42 16,42 L26,42 C26.5522847,42 27,41.5522847 27,41 C27,40.4477153 26.5522847,40 26,40 Z" id="Path"></path>
                <path d="M1,27 C1.55228475,27 2,26.5522847 2,26 L2,16 C2,15.4477153 1.55228475,15 1,15 C0.44771525,15 0,15.4477153 0,16 L0,26 C0,26.5522847 0.44771525,27 1,27 Z" id="Path"></path>
                <path d="M41,15 C40.4477153,15 40,15.4477153 40,16 L40,26 C40,26.5522847 40.4477153,27 41,27 C41.5522847,27 42,26.5522847 42,26 L42,16 C42,15.4477153 41.5522847,15 41,15 Z" id="Path"></path>
                <path d="M9,0 L5,0 C2.23994685,0.00330611633 0.00330611633,2.23994685 0,5 L0,9 C0,9.55228475 0.44771525,10 1,10 C1.55228475,10 2,9.55228475 2,9 L2,5 C2,3.34314575 3.34314575,2 5,2 L9,2 C9.55228475,2 10,1.55228475 10,1 C10,0.44771525 9.55228475,0 9,0 Z" id="Path"></path>
                <path d="M37,0 L33,0 C32.4477153,0 32,0.44771525 32,1 C32,1.55228475 32.4477153,2 33,2 L37,2 C38.6568542,2 40,3.34314575 40,5 L40,9 C40,9.55228475 40.4477153,10 41,10 C41.5522847,10 42,9.55228475 42,9 L42,5 C41.9966939,2.23994685 39.7600532,0.00330611633 37,0 Z" id="Path"></path>
                <path d="M41,32 C40.4477153,32 40,32.4477153 40,33 L40,37 C40,38.6568542 38.6568542,40 37,40 L33,40 C32.4477153,40 32,40.4477153 32,41 C32,41.5522847 32.4477153,42 33,42 L37,42 C39.7600532,41.9966939 41.9966939,39.7600532 42,37 L42,33 C42,32.4477153 41.5522847,32 41,32 Z" id="Path"></path>
                <path d="M9,40 L5,40 C3.34314575,40 2,38.6568542 2,37 L2,33 C2,32.4477153 1.55228475,32 1,32 C0.44771525,32 0,32.4477153 0,33 L0,37 C0.00330611633,39.7600532 2.23994685,41.9966939 5,42 L9,42 C9.55228475,42 10,41.5522847 10,41 C10,40.4477153 9.55228475,40 9,40 Z" id="Path"></path>
                <path d="M21.781,9.375 C21.5842515,9.14925668 21.2994495,9.01968715 21,9.01968715 C20.7005505,9.01968715 20.4157485,9.14925668 20.219,9.375 L12.219,19.375 C11.9786603,19.6751841 11.9317409,20.0865903 12.0983181,20.4331819 C12.2648953,20.7797734 12.6154566,21.0001443 13,21 L19,21 L19,31 C19,32.1045695 19.8954305,33 21,33 C22.1045695,33 23,32.1045695 23,31 L23,21 L29,21 C29.3845434,21.0001443 29.7351047,20.7797734 29.9016819,20.4331819 C30.0682591,20.0865903 30.0213397,19.6751841 29.781,19.375 L21.781,9.375 Z" id="Path"></path>
            </g>
        </g>
    </g>
</svg>