<?xml version="1.0" encoding="UTF-8"?>
<svg width="296px" height="60px" viewBox="0 0 296 60" version="1.1" xmlns="http://www.w3.org/2000/svg" xmlns:xlink="http://www.w3.org/1999/xlink">
    <title>Artboard</title>
    <g id="Artboard" stroke="none" stroke-width="1" fill="none" fill-rule="evenodd">
        <path d="M12,60 L12,28 L20,28 L20,60 L36,60 L36,28 L44,28 L44,60 L60,60 L60,28 L52,28 L52,20 L-4,20 L-4,60 L12,60 Z M108,60 L108,52 L84,52 L84,44 L108,44 L108,28 L100,28 L100,20 L76,20 L76,28 L68,28 L68,52 L76,52 L76,60 L108,60 Z M92,36 L84,36 L84,28 L92,28 L92,36 Z M132,60 L132,28 L140,28 L140,60 L156,60 L156,28 L164,28 L164,60 L180,60 L180,28 L172,28 L172,20 L116,20 L116,60 L132,60 Z M228,60 L228,52 L204,52 L204,44 L228,44 L228,28 L220,28 L220,20 L196,20 L196,28 L188,28 L188,52 L196,52 L196,60 L228,60 Z M212,36 L204,36 L204,28 L212,28 L212,36 Z M268,60 L268,52 L276,52 L276,28 L268,28 L268,20 L244,20 L244,28 L236,28 L236,52 L244,52 L244,60 L268,60 Z M260,52 L252,52 L252,28 L260,28 L260,52 Z" id="memeo" fill="#FFB400" fill-rule="nonzero"></path>
        <path d="M16,56 L16,24 L24,24 L24,56 L40,56 L40,24 L48,24 L48,56 L64,56 L64,24 L56,24 L56,16 L0,16 L0,56 L16,56 Z M112,56 L112,48 L88,48 L88,40 L112,40 L112,24 L104,24 L104,16 L80,16 L80,24 L72,24 L72,48 L80,48 L80,56 L112,56 Z M96,32 L88,32 L88,24 L96,24 L96,32 Z M136,56 L136,24 L144,24 L144,56 L160,56 L160,24 L168,24 L168,56 L184,56 L184,24 L176,24 L176,16 L120,16 L120,56 L136,56 Z M232,56 L232,48 L208,48 L208,40 L232,40 L232,24 L224,24 L224,16 L200,16 L200,24 L192,24 L192,48 L200,48 L200,56 L232,56 Z M216,32 L208,32 L208,24 L216,24 L216,32 Z M272,56 L272,48 L280,48 L280,24 L272,24 L272,16 L248,16 L248,24 L240,24 L240,48 L248,48 L248,56 L272,56 Z M264,48 L256,48 L256,24 L264,24 L264,48 Z" id="memeo" fill="#FF00B4" fill-rule="nonzero"></path>
        <path d="M20,52 L20,20 L28,20 L28,52 L44,52 L44,20 L52,20 L52,52 L68,52 L68,20 L60,20 L60,12 L4,12 L4,52 L20,52 Z M116,52 L116,44 L92,44 L92,36 L116,36 L116,20 L108,20 L108,12 L84,12 L84,20 L76,20 L76,44 L84,44 L84,52 L116,52 Z M100,28 L92,28 L92,20 L100,20 L100,28 Z M140,52 L140,20 L148,20 L148,52 L164,52 L164,20 L172,20 L172,52 L188,52 L188,20 L180,20 L180,12 L124,12 L124,52 L140,52 Z M236,52 L236,44 L212,44 L212,36 L236,36 L236,20 L228,20 L228,12 L204,12 L204,20 L196,20 L196,44 L204,44 L204,52 L236,52 Z M220,28 L212,28 L212,20 L220,20 L220,28 Z M276,52 L276,44 L284,44 L284,20 L276,20 L276,12 L252,12 L252,20 L244,20 L244,44 L252,44 L252,52 L276,52 Z M268,44 L260,44 L260,20 L268,20 L268,44 Z" id="memeo" fill="#B400FF" fill-rule="nonzero"></path>
        <path d="M24,48 L24,16 L32,16 L32,48 L48,48 L48,16 L56,16 L56,48 L72,48 L72,16 L64,16 L64,8 L8,8 L8,48 L24,48 Z M120,48 L120,40 L96,40 L96,32 L120,32 L120,16 L112,16 L112,8 L88,8 L88,16 L80,16 L80,40 L88,40 L88,48 L120,48 Z M104,24 L96,24 L96,16 L104,16 L104,24 Z M144,48 L144,16 L152,16 L152,48 L168,48 L168,16 L176,16 L176,48 L192,48 L192,16 L184,16 L184,8 L128,8 L128,48 L144,48 Z M240,48 L240,40 L216,40 L216,32 L240,32 L240,16 L232,16 L232,8 L208,8 L208,16 L200,16 L200,40 L208,40 L208,48 L240,48 Z M224,24 L216,24 L216,16 L224,16 L224,24 Z M280,48 L280,40 L288,40 L288,16 L280,16 L280,8 L256,8 L256,16 L248,16 L248,40 L256,40 L256,48 L280,48 Z M272,40 L264,40 L264,16 L272,16 L272,40 Z" id="memeo" fill="#00B4FF" fill-rule="nonzero"></path>
        <path d="M28,44 L28,12 L36,12 L36,44 L52,44 L52,12 L60,12 L60,44 L76,44 L76,12 L68,12 L68,4 L12,4 L12,44 L28,44 Z M124,44 L124,36 L100,36 L100,28 L124,28 L124,12 L116,12 L116,4 L92,4 L92,12 L84,12 L84,36 L92,36 L92,44 L124,44 Z M108,20 L100,20 L100,12 L108,12 L108,20 Z M148,44 L148,12 L156,12 L156,44 L172,44 L172,12 L180,12 L180,44 L196,44 L196,12 L188,12 L188,4 L132,4 L132,44 L148,44 Z M244,44 L244,36 L220,36 L220,28 L244,28 L244,12 L236,12 L236,4 L212,4 L212,12 L204,12 L204,36 L212,36 L212,44 L244,44 Z M228,20 L220,20 L220,12 L228,12 L228,20 Z M284,44 L284,36 L292,36 L292,12 L284,12 L284,4 L260,4 L260,12 L252,12 L252,36 L260,36 L260,44 L284,44 Z M276,36 L268,36 L268,12 L276,12 L276,36 Z" id="memeo" fill="#AAF200" fill-rule="nonzero"></path>
        <path d="M32,40 L32,8 L40,8 L40,40 L56,40 L56,8 L64,8 L64,40 L80,40 L80,8 L72,8 L72,0 L16,0 L16,40 L32,40 Z M128,40 L128,32 L104,32 L104,24 L128,24 L128,8 L120,8 L120,0 L96,0 L96,8 L88,8 L88,32 L96,32 L96,40 L128,40 Z M112,16 L104,16 L104,8 L112,8 L112,16 Z M152,40 L152,8 L160,8 L160,40 L176,40 L176,8 L184,8 L184,40 L200,40 L200,8 L192,8 L192,0 L136,0 L136,40 L152,40 Z M248,40 L248,32 L224,32 L224,24 L248,24 L248,8 L240,8 L240,0 L216,0 L216,8 L208,8 L208,32 L216,32 L216,40 L248,40 Z M232,16 L224,16 L224,8 L232,8 L232,16 Z M288,40 L288,32 L296,32 L296,8 L288,8 L288,0 L264,0 L264,8 L256,8 L256,32 L264,32 L264,40 L288,40 Z M280,32 L272,32 L272,8 L280,8 L280,32 Z" id="memeo" fill="#FFFFFF" fill-rule="nonzero"></path>
    </g>
</svg>